<?xml version="1.0" encoding="iso-8859-1"?>
<!-- Generator: Adobe Illustrator 16.0.0, SVG Export Plug-In . SVG Version: 6.00 Build 0)  -->
<!DOCTYPE svg PUBLIC "-//W3C//DTD SVG 1.1//EN" "http://www.w3.org/Graphics/SVG/1.1/DTD/svg11.dtd">
<svg version="1.1" id="Capa_1" xmlns="http://www.w3.org/2000/svg" xmlns:xlink="http://www.w3.org/1999/xlink" x="0px" y="0px"
	 width="47px" height="47.001px" viewBox="0 0 47 47.001" style="enable-background:new 0 0 47 47.001;" xml:space="preserve">
<g>
	<path d="M23.5,0C15.06,0,8.213,6.556,8.213,14.644c0,9.604,6.671,12.051,6.671,17.642c0,1.383,1.056,2.666,2.643,3.61
		c-0.333,0.275-0.517,0.578-0.517,0.896c0,0.426,0.335,0.823,0.908,1.164c-0.539,0.335-0.852,0.721-0.852,1.133
		c0,0.415,0.32,0.805,0.872,1.141c-0.563,0.34-0.892,0.732-0.892,1.152c0,0.512,0.484,0.983,1.293,1.365
		c-0.314,0.285-0.493,0.6-0.493,0.93c0,0.979,1.524,1.812,3.669,2.143c0.375,0.697,1.14,1.181,2.031,1.181
		c0.89,0,1.652-0.479,2.029-1.176c2.161-0.327,3.704-1.163,3.704-2.146c0-0.326-0.174-0.638-0.479-0.919
		c0.825-0.384,1.32-0.858,1.32-1.377c0-0.416-0.321-0.806-0.874-1.143c0.562-0.339,0.891-0.73,0.891-1.15
		c0-0.426-0.335-0.823-0.908-1.165c0.539-0.334,0.853-0.72,0.853-1.132c0-0.329-0.2-0.642-0.556-0.924
		c1.562-0.943,2.599-2.215,2.599-3.584c0-5.591,6.663-8.037,6.663-17.642C38.788,6.556,31.942,0,23.5,0z M23.5,4
		c6.104,0,11.078,4.596,11.27,10.308H12.23C12.422,8.596,17.396,4,23.5,4z"/>
</g>
<g>
</g>
<g>
</g>
<g>
</g>
<g>
</g>
<g>
</g>
<g>
</g>
<g>
</g>
<g>
</g>
<g>
</g>
<g>
</g>
<g>
</g>
<g>
</g>
<g>
</g>
<g>
</g>
<g>
</g>
</svg>
