<svg xmlns="http://www.w3.org/2000/svg" xmlns:svgjs="http://svgjs.com/svgjs" xmlns:xlink="http://www.w3.org/1999/xlink" width="288" height="288"><svg xmlns="http://www.w3.org/2000/svg" width="288" height="288" fillRule="evenodd" stroke-linejoin="round" stroke-miterlimit="2" clip-rule="evenodd" viewBox="0 0 32 32"><rect width="32" height="32" fill="none"/><path fill="#fff" d="M9.5,24.5l0,1.5c0,0.276 0.224,0.5 0.5,0.5l2,0c0.276,0 0.5,-0.224 0.5,-0.5c0,-0.276 -0.224,-0.5 -0.5,-0.5l-1.5,-0c0,-0 0,-1 0,-1c-0,-0 7,0 7,0c0,0 0,1 0,1c-0,-0 -1.5,0 -1.5,0c-0.276,0 -0.5,0.224 -0.5,0.5c0,0.276 0.224,0.5 0.5,0.5l2,0c0.276,0 0.5,-0.224 0.5,-0.5l0,-1.5l1,0l0,0.5c0,0.276 0.224,0.5 0.5,0.5l1.5,0l0,0.5c0,0.276 0.224,0.5 0.5,0.5l5.5,0l0,1.5c0,0.276 0.224,0.5 0.5,0.5c0.276,-0 0.5,-0.224 0.5,-0.5l0,-22c0,-0.276 -0.224,-0.5 -0.5,-0.5c-0.276,-0 -0.5,0.224 -0.5,0.5l0,1.5l-5.5,0c-0.276,0 -0.5,0.224 -0.5,0.5l0,0.5l-1.5,0c-0.276,0 -0.5,0.224 -0.5,0.5l0,0.5l-1,0l0,-3l1.5,0c0.276,0 0.5,-0.224 0.5,-0.5l0,-1.5l1.5,0c0.276,0 0.5,-0.224 0.5,-0.5c0,-0.276 -0.224,-0.5 -0.5,-0.5l-16,0c-0.276,0 -0.5,0.224 -0.5,0.5c0,0.276 0.224,0.5 0.5,0.5l1.5,0l0,1.5c0,0.276 0.224,0.5 0.5,0.5l1.5,0l0,3l-1,0l0,-0.5c0,-0.276 -0.224,-0.5 -0.5,-0.5l-2,0c-0.276,0 -0.5,0.224 -0.5,0.5l0,6.5l-1,0l0,-0.5c0,-0.276 -0.224,-0.5 -0.5,-0.5c-0.276,-0 -0.5,0.224 -0.5,0.5l0,4c0,0.276 0.224,0.5 0.5,0.5c0.276,-0 0.5,-0.224 0.5,-0.5l0,-0.5l1,0l0,6.5c0,0.276 0.224,0.5 0.5,0.5l2,0c0.276,0 0.5,-0.224 0.5,-0.5l0,-0.5l1,0Zm4.5,1c0.276,0 0.5,0.224 0.5,0.5c0,0.276 -0.224,0.5 -0.5,0.5c-0.276,0 -0.5,-0.224 -0.5,-0.5c0,-0.276 0.224,-0.5 0.5,-0.5Zm8.5,-17l-0,17c-0,0 5,0 5,-0l0,-17l-5,0Zm-15,1l0,15c-0,0 -1,0 -1,0c0,-0 0,-15 0,-15l1,0Zm14,0l0,15c-0,0 -1,0 -1,0c0,-0 0,-15 0,-15l1,0Zm-3.5,14l1.5,0l-0,-13l-11,-0c0,-0 -0,13 0,13l9.5,0l0,0Zm-5.5,-11c-0.189,0 -0.363,0.107 -0.447,0.276l-1.5,3c-0.113,0.226 -0.04,0.5 0.17,0.64l1.277,0.852c0,-0 0,3.732 0,3.732c0,0.197 0.116,0.375 0.295,0.456c0.18,0.081 0.39,0.049 0.537,-0.082l4.5,-4c0.116,-0.103 0.178,-0.254 0.167,-0.409c-0.011,-0.154 -0.093,-0.295 -0.222,-0.381l-1.132,-0.755c-0,-0 1.302,-2.605 1.302,-2.605c0.078,-0.155 0.069,-0.339 -0.022,-0.487c-0.091,-0.147 -0.252,-0.237 -0.425,-0.237l-4.5,0Zm0.309,1l3.382,0c-0,0 -1.138,2.276 -1.138,2.276c-0.113,0.226 -0.04,0.5 0.17,0.64l0.961,0.641c-0,-0 -3.184,2.83 -3.184,2.83c0,-0 0,-2.887 0,-2.887c0,-0.167 -0.084,-0.323 -0.223,-0.416l-1.132,-0.755l1.164,-2.329Zm-7.309,3l-0,1c-0,-0 -1,0 -1,0c0,-0 0,-1 0,-1l1,0Zm12,-10l-7,0l0,3l7,0l0,-3Zm2,-2l0,1c0,-0 -11,0 -11,0c0,-0 0,-1 0,-1c0,0 11,0 11,0Z" class="color000 svgShape"/></svg></svg>