<svg xmlns="http://www.w3.org/2000/svg" viewBox="0 0 512 512"><path d="m270.03 355.87 12.52 9.69 3.3-17.6-15.82 7.91z"/><path d="M221.67 386a7.49 7.49 0 0 1-4.71-5.63l-7.65-40.84-5.81-2.9V427h105v-90.36l-5.81 2.9-7.69 40.84a7.49 7.49 0 0 1-4.71 5.63 7.48 7.48 0 0 1-7.25-1.08L256 364l-27.08 20.95a7.48 7.48 0 0 1-7.25 1.08Zm26.83 16a7.5 7.5 0 0 1 15 0v5a7.5 7.5 0 0 1-15 0ZM183.5 482h145v30h-145z"/><path d="M143.5 442v70h25v-37.5a7.5 7.5 0 0 1 7.5-7.5h160a7.5 7.5 0 0 1 7.5 7.5V512h25v-70zm-70-43.58V504.5A7.5 7.5 0 0 0 81 512h47.5V358.91l-37 13.72a27.61 27.61 0 0 0-18 25.79zm347.05-25.79-37.05-13.72V512H431a7.5 7.5 0 0 0 7.5-7.5V398.42a27.61 27.61 0 0 0-17.95-25.79zM241.97 355.87l-15.82-7.91 3.3 17.6 12.52-9.69zM211 92.73a16.11 16.11 0 0 0 15.76 12.93h58.44A16.11 16.11 0 0 0 301 92.73l14.7-73.5A16.07 16.07 0 0 0 299.92 0h-87.84a16.07 16.07 0 0 0-15.76 19.23zm24.7-46.13 24.21-24.21A7.5 7.5 0 1 1 270.51 33l-11.4 11.41H271a7.5 7.5 0 0 1 5.3 12.8l-26.05 26.05a7.5 7.5 0 1 1-10.61-10.6l13.25-13.25H241a7.5 7.5 0 0 1-5.3-12.81zm107.8 170.9V185h-175v32.5a87.51 87.51 0 0 0 40 73.45v31.41l47.5 23.75 47.5-23.75V291a87.51 87.51 0 0 0 40-73.5zM138.5 145h235v25h-235z"/><path d="M353.5 127.5a97.31 97.31 0 0 0-34.42-74.28l-8.29 41.47a26.15 26.15 0 0 1-25.57 21h-58.44a26.15 26.15 0 0 1-25.57-21l-8.29-41.47a97.31 97.31 0 0 0-34.42 74.28v2.5h195zm-210 227V427h45v-82.5A17.52 17.52 0 0 0 171 327a27.53 27.53 0 0 0-27.5 27.5zM341 327a17.52 17.52 0 0 0-17.5 17.5V427h45v-72.5A27.53 27.53 0 0 0 341 327z"/></svg>